<svg xmlns="http://www.w3.org/2000/svg" viewBox="0 0 271.25 271.25"><defs><style>.cls-1{fill:#fedd00;}</style></defs><title>logo</title><g id="Layer_2" data-name="Layer 2"><g id="Layer_1-2" data-name="Layer 1"><rect class="cls-1" width="271.25" height="271.25"/><polygon points="166.27 78.93 109.29 192.32 165.4 192.32 222.38 78.93 166.27 78.93"/><path d="M78.19,111.09c7.9-8.43,12.53-19.63,13.59-32.16h-11c-1,9.69-4.58,18.25-10.57,24.63A35,35,0,0,1,66.41,107l5,10A46,46,0,0,0,78.19,111.09Z"/><path d="M52.3,78.93l9.91,19.7C66,94.84,69.74,88.68,71,78.93Z"/><path d="M113.37,135.25c17.8-12.84,25.49-19.24,37.35-49.16,1-2.59,1.94-5,2.76-7.16H141.71c-.39,1-.79,2-1.22,3.11-11.14,28.12-17.25,32.52-33.56,44.29A95.71,95.71,0,0,0,86.21,146.4l5.64,11.21A82.14,82.14,0,0,1,113.37,135.25Z"/><path d="M112.51,78.93h-11c-.94,17.74-6.84,29.62-25.69,46.77L81,135.92C103.09,116.37,111.39,101.89,112.51,78.93Z"/><path d="M121.59,144.16l-1-1.33c-6.69,4.28-15,10.71-23.4,25.5l6.07,12.07c3.7-7.58,7-13.93,10-19.63C116.37,154.76,119.12,149.44,121.59,144.16Z"/><path d="M131.31,78.93H120.57c-.62,8.72-1.28,17.68-4.53,25l.9,1.26C124.88,98.71,129,89.69,131.31,78.93Z"/></g></g></svg>